<svg t="1629813381285" class="icon" viewBox="0 0 1024 1024" version="1.1" xmlns="http://www.w3.org/2000/svg" p-id="8401" width="24" height="24">
  <path d="M490.666667 533.333333v256a64 64 0 0 1-64 64h-192a64 64 0 0 1-64-64v-192a64 64 0 0 1 64-64h256z m298.666666 0a64 64 0 0 1 64 64v192a64 64 0 0 1-64 64h-192a64 64 0 0 1-64-64V533.333333h256zM426.666667 170.666667a64 64 0 0 1 64 64v256H234.666667a64 64 0 0 1-64-64v-192a64 64 0 0 1 64-64h192z m266.666666 0a160 160 0 1 1 0 320 160 160 0 0 1 0-320z" p-id="8402"></path>
</svg>